# xmcd
#
# Track frame offsets: 
#        150
#        17610
#        34592
#        52157
#        75347
#        100270
#        130365
#        155437
#        179042
#        195625
#        214030
#        230815
#        259235
#        281945
#        317100
#
# Disc length: 4560 seconds
#
# Revision: 0
# Processed by: cddbd v1.5.2PL0 Copyright (c) Steve Scherf et al.
# Submitted via: ExactAudioCopy v0.95b4
#
DISCID=db11ce0f
DTITLE=Bobby Womack - Poetry In Motion Disc 2
DYEAR=2001
DGENRE=R&B
TTITLE0=Check It Out
TTITLE1=So Many Sides Of You
TTITLE2=Secrets
TTITLE3=Just My Imagination
TTITLE4=If You Think You're Lonely
TTITLE5=Where Do We Go From Here
TTITLE6=Love Has Finally come At Last
TTITLE7=Through The Eyes Of A Child
TTITLE8=Surprise Surprise
TTITLE9=Who's Foolin' Who
TTITLE10=I Wish I Had Someone To Go Home To
TTITLE11=Someday We'll All Be Free
TTITLE12=I'm So Proud
TTITLE13=I Feel A Groove Coming On
TTITLE14=American Dream
EXTD=
EXTT0=
EXTT1=
EXTT2=
EXTT3=
EXTT4=
EXTT5=
EXTT6=
EXTT7=
EXTT8=
EXTT9=
EXTT10=
EXTT11=
EXTT12=
EXTT13=
EXTT14=
PLAYORDER=
